<?xml version="1.0" standalone="no"?>
<!DOCTYPE svg PUBLIC "-//W3C//DTD SVG 20010904//EN"
 "http://www.w3.org/TR/2001/REC-SVG-20010904/DTD/svg10.dtd">
<svg version="1.0" xmlns="http://www.w3.org/2000/svg"
 width="300.000000pt" height="71.000000pt" viewBox="0 0 300.000000 71.000000"
 preserveAspectRatio="xMidYMid meet">
<metadata>
Created by potrace 1.10, written by Peter Selinger 2001-2011
</metadata>
<g transform="translate(0.000000,71.000000) scale(0.100000,-0.100000)"
fill="#000000" stroke="none">
<path d="M2604 628 c-5 -7 -7 -49 -5 -93 2 -65 0 -78 -10 -67 -20 19 -73 14
-109 -10 -70 -48 -91 -142 -44 -193 22 -23 31 -27 64 -22 22 3 52 14 69 26 36
26 41 26 41 1 0 -25 29 -38 40 -20 5 7 3 25 -3 39 -6 15 -11 93 -11 185 -1
111 -4 160 -13 163 -6 2 -15 -2 -19 -9z m-24 -208 c31 -31 27 -93 -6 -119 -47
-37 -103 -22 -123 32 -29 75 73 143 129 87z"/>
<path d="M855 599 c-5 -7 -1 -17 8 -24 14 -10 17 -38 19 -171 3 -151 4 -159
23 -159 19 0 20 6 18 82 l-2 83 40 -27 c22 -14 56 -52 76 -85 24 -38 42 -58
52 -56 36 8 -12 110 -64 138 -27 15 -33 30 -11 30 8 0 26 14 40 31 36 43 36
106 0 140 -22 21 -37 24 -109 27 -58 3 -85 0 -90 -9z m170 -54 c56 -56 10
-121 -82 -116 -19 1 -23 7 -23 34 0 17 3 49 6 70 6 34 9 37 41 37 23 0 42 -8
58 -25z"/>
<path d="M1727 603 c-4 -3 -7 -12 -7 -20 0 -9 15 -13 50 -13 l50 0 2 -57 c1
-32 2 -105 2 -163 1 -98 2 -105 21 -105 19 0 20 8 23 163 l2 162 50 0 c43 0
50 3 50 20 0 19 -7 20 -118 20 -65 0 -122 -3 -125 -7z"/>
<path d="M1160 585 c-15 -18 -6 -45 13 -45 8 0 20 7 27 15 10 12 10 18 0 30
-16 19 -24 19 -40 0z"/>
<path d="M635 527 c-60 -11 -112 -22 -114 -23 -2 -2 6 -11 18 -21 l22 -18
-145 -145 -146 -144 -64 69 c-36 39 -65 74 -66 79 0 5 3 6 6 3 13 -13 62 27
71 56 l8 30 60 -56 c109 -102 96 -61 -14 48 l-71 69 0 -39 c0 -78 -6 -85 -66
-85 -30 0 -54 -2 -54 -5 0 -3 42 -46 93 -95 l92 -89 120 -1 120 0 90 90 90 91
18 -22 c10 -12 19 -20 20 -18 2 2 11 54 21 114 10 61 21 116 23 123 6 15 5 15
-132 -11z m78 -22 c12 -5 12 -16 3 -68 -9 -49 -16 -64 -35 -74 -14 -6 -59 -46
-102 -87 l-76 -76 -77 0 c-42 0 -76 4 -76 10 0 5 47 55 105 111 57 57 109 115
116 131 11 27 22 32 104 51 11 3 21 5 22 6 1 0 8 -1 16 -4z"/>
<path d="M1160 373 c0 -114 7 -140 35 -129 13 5 15 13 10 34 -4 15 -6 66 -6
115 2 81 0 87 -19 87 -19 0 -20 -6 -20 -107z"/>
<path d="M1335 464 c-42 -22 -67 -59 -73 -110 -4 -39 -1 -47 31 -79 23 -23 44
-35 62 -35 34 0 95 36 95 56 0 18 -11 18 -36 -1 -10 -8 -29 -15 -41 -15 -25 0
-71 37 -74 60 -4 38 3 61 24 81 18 17 30 20 70 15 38 -4 49 -2 54 10 13 34
-58 45 -112 18z"/>
<path d="M1554 463 c-38 -19 -84 -87 -84 -125 0 -39 25 -85 51 -93 60 -19 148
37 167 107 27 97 -45 156 -134 111z m85 -49 c12 -15 21 -39 21 -54 0 -37 -42
-80 -78 -80 -37 0 -75 40 -75 80 0 71 90 108 132 54z"/>
<path d="M1985 469 c-4 -5 -4 -22 0 -37 4 -15 8 -63 9 -107 1 -67 4 -80 19
-83 15 -3 17 5 17 68 0 106 39 163 76 113 17 -23 37 -5 32 28 -5 35 -47 37
-78 4 -25 -27 -42 -32 -39 -12 3 26 -1 37 -15 37 -8 0 -18 -5 -21 -11z"/>
<path d="M2195 470 c-9 -14 3 -30 23 -30 10 0 28 -7 41 -16 l23 -16 -40 -18
c-45 -20 -62 -44 -62 -88 0 -61 70 -83 117 -36 14 14 26 24 27 22 21 -47 56
-65 56 -29 0 11 -4 22 -9 25 -4 3 -18 34 -31 68 -26 72 -76 128 -113 128 -14
0 -29 -4 -32 -10z m109 -126 c14 -54 -59 -89 -82 -40 -15 33 9 66 47 66 23 0
30 -6 35 -26z"/>
<path d="M2764 461 c-47 -29 -64 -59 -64 -114 0 -40 5 -53 29 -78 18 -17 40
-29 56 -29 29 0 75 21 94 43 18 23 -4 31 -31 13 -32 -23 -61 -20 -92 9 -38 36
-30 50 28 46 42 -2 47 0 44 16 -3 15 -11 17 -52 15 -46 -4 -47 -3 -37 17 18
32 48 44 98 36 42 -6 44 -5 41 17 -2 19 -10 23 -43 26 -26 1 -51 -4 -71 -17z"/>
<path d="M1398 162 l23 -7 -25 -34 c-14 -19 -23 -38 -20 -42 7 -12 64 -11 64
1 0 6 -12 10 -27 10 -24 0 -25 1 -11 18 9 9 21 27 27 40 11 21 10 22 -21 21
-28 -1 -29 -2 -10 -7z"/>
<path d="M1452 123 c3 -44 5 -48 31 -51 15 -2 27 1 27 7 0 6 -9 11 -20 11 -25
0 -27 27 -2 33 16 4 16 5 0 6 -26 2 -22 29 5 34 15 3 12 5 -11 6 l-33 1 3 -47z"/>
<path d="M1531 118 c1 -29 4 -43 6 -30 5 28 19 28 33 1 7 -11 14 -18 17 -16 2
3 0 14 -6 25 -7 13 -7 22 1 30 17 17 1 42 -27 42 -24 0 -25 -3 -24 -52z"/>
<path d="M1608 145 c-9 -19 -8 -29 6 -50 35 -54 85 -6 60 59 -10 25 -53 20
-66 -9z m52 0 c16 -19 3 -57 -18 -53 -18 3 -27 30 -18 54 7 18 20 18 36 -1z"/>
<path d="M1702 124 c3 -54 15 -63 49 -35 20 16 22 23 14 47 -8 21 -18 30 -38
32 -28 3 -28 3 -25 -44z m43 0 c0 -19 -6 -30 -17 -32 -14 -3 -18 3 -18 26 0
16 3 32 7 36 14 13 28 -1 28 -30z"/>
<path d="M1785 126 c0 -24 3 -48 8 -52 4 -4 7 5 7 19 0 39 37 38 43 0 2 -16 4
-3 4 27 0 30 -2 45 -4 33 -6 -30 -43 -32 -43 -3 0 11 -4 20 -8 20 -4 0 -7 -20
-7 -44z"/>
<path d="M1880 125 c-7 -25 -10 -48 -6 -52 3 -3 6 1 6 10 0 22 29 22 46 0 7
-10 13 -13 14 -8 0 20 -28 89 -38 93 -5 1 -15 -18 -22 -43z"/>
<path d="M1980 145 c-5 -14 -7 -32 -4 -40 8 -19 35 -34 52 -28 20 8 14 20 -10
19 -18 -1 -24 5 -26 27 -3 26 4 32 36 28 6 -1 12 3 12 9 0 5 -11 10 -25 10
-18 0 -28 -7 -35 -25z"/>
<path d="M2062 123 c-2 -50 -1 -53 23 -53 14 0 25 5 25 10 0 6 -9 10 -19 10
-16 0 -21 8 -24 43 -3 40 -4 40 -5 -10z"/>
<path d="M2126 154 c-12 -31 -6 -63 15 -74 36 -20 71 29 49 70 -13 24 -55 27
-64 4z m49 -30 c0 -22 -5 -29 -20 -29 -23 0 -32 30 -14 51 18 22 34 11 34 -22z"/>
<path d="M2210 120 c0 -54 20 -71 21 -17 0 28 2 30 12 14 35 -54 36 -54 35 3
-1 48 -1 50 -7 20 l-7 -35 -17 33 c-25 46 -37 40 -37 -18z"/>
<path d="M2302 123 c3 -44 5 -48 31 -51 15 -2 27 1 27 7 0 6 -9 11 -20 11 -25
0 -27 27 -2 33 16 4 16 5 0 6 -26 2 -22 29 5 34 15 3 12 5 -11 6 l-33 1 3 -47z"/>
<path d="M905 120 c4 -6 88 -10 221 -10 136 0 214 4 214 10 0 6 -80 10 -221
10 -144 0 -218 -3 -214 -10z"/>
<path d="M2390 120 c0 -6 80 -10 220 -10 140 0 220 4 220 10 0 6 -80 10 -220
10 -140 0 -220 -4 -220 -10z"/>
</g>
</svg>
